<svg width="2406" height="970" xmlns="http://www.w3.org/2000/svg"><defs><linearGradient x1="50%" y1="0%" x2="50%" y2="100%" id="a"><stop stop-color="#F8FBFF" stop-opacity="0" offset="0%"/><stop stop-color="#F8FBFF" offset="100%"/></linearGradient><linearGradient x1="24.906%" y1="62.881%" x2="100.454%" y2="0%" id="b"><stop stop-color="#F8FBFF" stop-opacity="0" offset="0%"/><stop stop-color="#D3DDEC" offset="100%"/></linearGradient><linearGradient x1="68.971%" y1="100%" x2="6.822%" y2="100%" id="c"><stop stop-color="#D3DDEC" stop-opacity="0" offset="0%"/><stop stop-color="#D3DDEC" stop-opacity=".48" offset="100%"/></linearGradient></defs><g fill="none" fill-rule="evenodd"><path fill="url(#a)" d="M0 489l1923 2v275L0 1454z" transform="translate(0 -491)"/><path fill="url(#b)" d="M0 489l1923 2L0 1190.213z" transform="translate(0 -491)"/><path fill="url(#c)" transform="rotate(-20 -575.343 109.702)" d="M506.003 155.202l-178.092 400h800l178.091-400z"/><path fill="#FFA695" d="M173.437 826.013l-6.075 87.345L730.63 708.345 736.705 621z"/><path fill="#FFE4DF" d="M33.437 737.013l-6.075 87.345L590.63 619.345 596.705 532z"/><path fill="#D3DDEC" d="M1807.47 148.68l-6.108 87.358 326.073-118.68 6.108-87.356V30z"/></g></svg>